# xmcd
# Copyright
#
# Track frame offsets:
#	150
#	13958
#	25405
#	37600
#	51053
#	65428
#	77710
#	88485
#	100450
#	112338
#	124975
#	138946
#	150719
#	163903
#	178316
#	192537
#	205971
#	219904
#
# Disc length: 3128 seconds
#
# Revision: 3
# Processed by: cddbd v1.4b41PL1 Copyright (c) Steve Scherf et al.
# Submitted via: CdAid 2001.03.30.01
#
DISCID=0e0c3612
DTITLE=Louis Armstrong  - The Great Louis Armstrong - Disc 1
DYEAR=1900
DGENRE=
TTITLE0=All of Me
TTITLE1=Something Tells Me
TTITLE2=My Walking Stick
TTITLE3=Save it, Pretty Mama
TTITLE4=The Song is Ended
TTITLE5=So Little Time
TTITLE6=The Old Folks at Home
TTITLE7=Mexican Swing
TTITLE8=Thanks a Million
TTITLE9=Naturally
TTITLE10=Hear Me Talkin to Ya
TTITLE11=It's Wonderful
TTITLE12=I've got a Pocketfull Of Dreams
TTITLE13=Nobody Knows The Troubl I've Seen
TTITLE14=Once in A While
TTITLE15=The Flat Foot Foogie
TTITLE16=Sweet as a Song
TTITLE17=Rockin' Chair
EXTD=
EXTT0=
EXTT1=
EXTT2=
EXTT3=
EXTT4=
EXTT5=
EXTT6=
EXTT7=
EXTT8=
EXTT9=
EXTT10=
EXTT11=
EXTT12=
EXTT13=
EXTT14=
EXTT15=
EXTT16=
EXTT17=
PLAYORDER=
